{"accessors":[{"bufferView":0,"byteOffset":0,"componentType":5126,"count":842,"max":[0.29951000213623047,0.2979380190372467,0.3003610074520111],"min":[-0.2996100187301636,-0.29789999127388,-0.2996390163898468],"type":"VEC3"},{"bufferView":1,"byteOffset":0,"componentType":5126,"count":842,"type":"VEC3"},{"bufferView":2,"byteOffset":0,"componentType":5125,"count":5040,"type":"SCALAR"},{"bufferView":3,"byteOffset":0,"componentType":5126,"count":842,"max":[0.20515501499176025,-0.7540050148963928,-0.08484398573637009],"min":[-0.3939650058746338,-1.3498430252075195,-0.6848440170288086],"type":"VEC3"},{"bufferView":4,"byteOffset":0,"componentType":5126,"count":842,"type":"VEC3"},{"bufferView":5,"byteOffset":0,"componentType":5125,"count":5040,"type":"SCALAR"},{"bufferView":6,"byteOffset":0,"componentType":5126,"count":842,"max":[-0.7531219720840454,0.39221301674842834,0.6835060119628906],"min":[-1.3522419929504395,-0.20362500846385956,0.08350598812103271],"type":"VEC3"},{"bufferView":7,"byteOffset":0,"componentType":5126,"count":842,"type":"VEC3"},{"bufferView":8,"byteOffset":0,"componentType":5125,"count":5040,"type":"SCALAR"},{"bufferView":9,"byteOffset":0,"componentType":5126,"count":842,"max":[1.35214102268219,0.20309101045131683,0.6836569905281067],"min":[0.7530210018157959,-0.39274701476097107,0.08365698903799057],"type":"VEC3"},{"bufferView":10,"byteOffset":0,"componentType":5126,"count":842,"type":"VEC3"},{"bufferView":11,"byteOffset":0,"componentType":5125,"count":5040,"type":"SCALAR"},{"bufferView":12,"byteOffset":0,"componentType":5126,"count":842,"max":[0.39436599612236023,1.3502600193023682,-0.08448398858308792],"min":[-0.20475400984287262,0.7544220089912415,-0.6844840049743652],"type":"VEC3"},{"bufferView":13,"byteOffset":0,"componentType":5126,"count":842,"type":"VEC3"},{"bufferView":14,"byteOffset":0,"componentType":5125,"count":5040,"type":"SCALAR"},{"bufferView":15,"byteOffset":0,"componentType":5126,"count":400,"max":[0.09956343472003937,0.035296160727739334,0.09430655092000961],"min":[-0.1940184384584427,-1.0872011184692383,-0.4787895381450653],"type":"VEC3"},{"bufferView":16,"byteOffset":0,"componentType":5126,"count":400,"type":"VEC3"},{"bufferView":17,"byteOffset":0,"componentType":5126,"count":400,"normalized":false,"type":"VEC2"},{"bufferView":18,"byteOffset":0,"componentType":5125,"count":1188,"type":"SCALAR"},{"bufferView":19,"byteOffset":0,"componentType":5126,"count":400,"max":[0.035038646310567856,0.19394172728061676,0.47747474908828735],"min":[-1.087770700454712,-0.09962873160839081,-0.09360773861408234],"type":"VEC3"},{"bufferView":20,"byteOffset":0,"componentType":5126,"count":400,"type":"VEC3"},{"bufferView":21,"byteOffset":0,"componentType":5126,"count":400,"normalized":false,"type":"VEC2"},{"bufferView":22,"byteOffset":0,"componentType":5125,"count":1188,"type":"SCALAR"},{"bufferView":23,"byteOffset":0,"componentType":5126,"count":400,"max":[-0.012275885790586472,0.16740460693836212,0.47243472933769226],"min":[-1.1348111629486084,-1.1250345706939697,-0.47377273440361023],"type":"VEC3"},{"bufferView":24,"byteOffset":0,"componentType":5126,"count":400,"type":"VEC3"},{"bufferView":25,"byteOffset":0,"componentType":5126,"count":400,"normalized":false,"type":"VEC2"},{"bufferView":26,"byteOffset":0,"componentType":5125,"count":1188,"type":"SCALAR"},{"bufferView":27,"byteOffset":0,"componentType":5126,"count":400,"max":[1.0876928567886353,0.09966249763965607,0.4776214063167572],"min":[-0.035161856561899185,-0.19447149336338043,-0.09360340237617493],"type":"VEC3"},{"bufferView":28,"byteOffset":0,"componentType":5126,"count":400,"type":"VEC3"},{"bufferView":29,"byteOffset":0,"componentType":5126,"count":400,"normalized":false,"type":"VEC2"},{"bufferView":30,"byteOffset":0,"componentType":5125,"count":1188,"type":"SCALAR"},{"bufferView":31,"byteOffset":0,"componentType":5126,"count":400,"max":[1.1256392002105713,-0.01264411211013794,0.4725733995437622],"min":[-0.16746319830417633,-1.1341079473495483,-0.4737604260444641],"type":"VEC3"},{"bufferView":32,"byteOffset":0,"componentType":5126,"count":400,"type":"VEC3"},{"bufferView":33,"byteOffset":0,"componentType":5126,"count":400,"normalized":false,"type":"VEC2"},{"bufferView":34,"byteOffset":0,"componentType":5125,"count":1188,"type":"SCALAR"},{"bufferView":35,"byteOffset":0,"componentType":5126,"count":400,"max":[0.19441935420036316,1.087589144706726,0.09432052075862885],"min":[-0.09966334700584412,-0.035229116678237915,-0.47844353318214417],"type":"VEC3"},{"bufferView":36,"byteOffset":0,"componentType":5126,"count":400,"type":"VEC3"},{"bufferView":37,"byteOffset":0,"componentType":5126,"count":400,"normalized":false,"type":"VEC2"},{"bufferView":38,"byteOffset":0,"componentType":5125,"count":1188,"type":"SCALAR"},{"bufferView":39,"byteOffset":0,"componentType":5126,"count":400,"max":[0.16786013543605804,1.1345009803771973,0.4724469482898712],"min":[-1.125736117362976,0.012134047225117683,-0.4734249413013458],"type":"VEC3"},{"bufferView":40,"byteOffset":0,"componentType":5126,"count":400,"type":"VEC3"},{"bufferView":41,"byteOffset":0,"componentType":5126,"count":400,"normalized":false,"type":"VEC2"},{"bufferView":42,"byteOffset":0,"componentType":5125,"count":1188,"type":"SCALAR"},{"bufferView":43,"byteOffset":0,"componentType":5126,"count":400,"max":[1.1347368955612183,1.1254088878631592,0.4725959300994873],"min":[0.012650118209421635,-0.16789589822292328,-0.47342294454574585],"type":"VEC3"},{"bufferView":44,"byteOffset":0,"componentType":5126,"count":400,"type":"VEC3"},{"bufferView":45,"byteOffset":0,"componentType":5126,"count":400,"normalized":false,"type":"VEC2"},{"bufferView":46,"byteOffset":0,"componentType":5125,"count":1188,"type":"SCALAR"},{"bufferView":47,"byteOffset":0,"componentType":5126,"count":182,"max":[1.0070056726781977,1.0071569476673423,0.8378049779954709],"min":[-1.0071056726781982,-1.0071189476673426,-0.8370829779954712],"type":"VEC3"},{"bufferView":48,"byteOffset":0,"componentType":5125,"count":1080,"type":"SCALAR"},{"bufferView":49,"byteOffset":0,"componentType":5126,"count":2,"max":[0.0,1.0,0.0],"min":[0.0,0.0,0.0],"type":"VEC3"},{"bufferView":50,"byteOffset":0,"componentType":5126,"count":2,"normalized":false,"type":"VEC2"},{"bufferView":51,"byteOffset":0,"componentType":5125,"count":2,"type":"SCALAR"},{"bufferView":52,"byteOffset":0,"componentType":5126,"count":2,"max":[0.0,1.0,0.0],"min":[0.0,0.0,0.0],"type":"VEC3"},{"bufferView":53,"byteOffset":0,"componentType":5126,"count":2,"normalized":false,"type":"VEC2"},{"bufferView":54,"byteOffset":0,"componentType":5125,"count":2,"type":"SCALAR"},{"bufferView":55,"byteOffset":0,"componentType":5126,"count":2,"max":[0.0,1.0,0.0],"min":[0.0,0.0,0.0],"type":"VEC3"},{"bufferView":56,"byteOffset":0,"componentType":5126,"count":2,"normalized":false,"type":"VEC2"},{"bufferView":57,"byteOffset":0,"componentType":5125,"count":2,"type":"SCALAR"},{"bufferView":58,"byteOffset":0,"componentType":5126,"count":17,"max":[0.4000000059604645,0.5,0.4000000059604645],"min":[-0.4000000059604645,-0.5,-0.4000000059604645],"type":"VEC3"},{"bufferView":59,"byteOffset":0,"componentType":5125,"count":90,"type":"SCALAR"},{"bufferView":60,"byteOffset":0,"componentType":5126,"count":17,"max":[0.4000000059604645,0.5,0.4000000059604645],"min":[-0.4000000059604645,-0.5,-0.4000000059604645],"type":"VEC3"},{"bufferView":61,"byteOffset":0,"componentType":5125,"count":90,"type":"SCALAR"},{"bufferView":62,"byteOffset":0,"componentType":5126,"count":17,"max":[0.4000000059604645,0.5,0.4000000059604645],"min":[-0.4000000059604645,-0.5,-0.4000000059604645],"type":"VEC3"},{"bufferView":63,"byteOffset":0,"componentType":5125,"count":90,"type":"SCALAR"}],"asset":{"generator":"VTK","version":"2.0"},"bufferViews":[{"buffer":0,"byteLength":10104,"byteOffset":0,"target":34962},{"buffer":1,"byteLength":10104,"byteOffset":0,"target":34962},{"buffer":2,"byteLength":20160,"byteOffset":0,"target":34963},{"buffer":3,"byteLength":10104,"byteOffset":0,"target":34962},{"buffer":4,"byteLength":10104,"byteOffset":0,"target":34962},{"buffer":5,"byteLength":20160,"byteOffset":0,"target":34963},{"buffer":6,"byteLength":10104,"byteOffset":0,"target":34962},{"buffer":7,"byteLength":10104,"byteOffset":0,"target":34962},{"buffer":8,"byteLength":20160,"byteOffset":0,"target":34963},{"buffer":9,"byteLength":10104,"byteOffset":0,"target":34962},{"buffer":10,"byteLength":10104,"byteOffset":0,"target":34962},{"buffer":11,"byteLength":20160,"byteOffset":0,"target":34963},{"buffer":12,"byteLength":10104,"byteOffset":0,"target":34962},{"buffer":13,"byteLength":10104,"byteOffset":0,"target":34962},{"buffer":14,"byteLength":20160,"byteOffset":0,"target":34963},{"buffer":15,"byteLength":4800,"byteOffset":0,"target":34962},{"buffer":16,"byteLength":4800,"byteOffset":0,"target":34962},{"buffer":17,"byteLength":3200,"byteOffset":0,"target":34962},{"buffer":18,"byteLength":4752,"byteOffset":0,"target":34963},{"buffer":19,"byteLength":4800,"byteOffset":0,"target":34962},{"buffer":20,"byteLength":4800,"byteOffset":0,"target":34962},{"buffer":21,"byteLength":3200,"byteOffset":0,"target":34962},{"buffer":22,"byteLength":4752,"byteOffset":0,"target":34963},{"buffer":23,"byteLength":4800,"byteOffset":0,"target":34962},{"buffer":24,"byteLength":4800,"byteOffset":0,"target":34962},{"buffer":25,"byteLength":3200,"byteOffset":0,"target":34962},{"buffer":26,"byteLength":4752,"byteOffset":0,"target":34963},{"buffer":27,"byteLength":4800,"byteOffset":0,"target":34962},{"buffer":28,"byteLength":4800,"byteOffset":0,"target":34962},{"buffer":29,"byteLength":3200,"byteOffset":0,"target":34962},{"buffer":30,"byteLength":4752,"byteOffset":0,"target":34963},{"buffer":31,"byteLength":4800,"byteOffset":0,"target":34962},{"buffer":32,"byteLength":4800,"byteOffset":0,"target":34962},{"buffer":33,"byteLength":3200,"byteOffset":0,"target":34962},{"buffer":34,"byteLength":4752,"byteOffset":0,"target":34963},{"buffer":35,"byteLength":4800,"byteOffset":0,"target":34962},{"buffer":36,"byteLength":4800,"byteOffset":0,"target":34962},{"buffer":37,"byteLength":3200,"byteOffset":0,"target":34962},{"buffer":38,"byteLength":4752,"byteOffset":0,"target":34963},{"buffer":39,"byteLength":4800,"byteOffset":0,"target":34962},{"buffer":40,"byteLength":4800,"byteOffset":0,"target":34962},{"buffer":41,"byteLength":3200,"byteOffset":0,"target":34962},{"buffer":42,"byteLength":4752,"byteOffset":0,"target":34963},{"buffer":43,"byteLength":4800,"byteOffset":0,"target":34962},{"buffer":44,"byteLength":4800,"byteOffset":0,"target":34962},{"buffer":45,"byteLength":3200,"byteOffset":0,"target":34962},{"buffer":46,"byteLength":4752,"byteOffset":0,"target":34963},{"buffer":47,"byteLength":2184,"byteOffset":0,"target":34962},{"buffer":48,"byteLength":4320,"byteOffset":0,"target":34963},{"buffer":49,"byteLength":24,"byteOffset":0,"target":34962},{"buffer":50,"byteLength":16,"byteOffset":0,"target":34962},{"buffer":51,"byteLength":8,"byteOffset":0,"target":34963},{"buffer":52,"byteLength":24,"byteOffset":0,"target":34962},{"buffer":53,"byteLength":16,"byteOffset":0,"target":34962},{"buffer":54,"byteLength":8,"byteOffset":0,"target":34963},{"buffer":55,"byteLength":24,"byteOffset":0,"target":34962},{"buffer":56,"byteLength":16,"byteOffset":0,"target":34962},{"buffer":57,"byteLength":8,"byteOffset":0,"target":34963},{"buffer":58,"byteLength":204,"byteOffset":0,"target":34962},{"buffer":59,"byteLength":360,"byteOffset":0,"target":34963},{"buffer":60,"byteLength":204,"byteOffset":0,"target":34962},{"buffer":61,"byteLength":360,"byteOffset":0,"target":34963},{"buffer":62,"byteLength":204,"byteOffset":0,"target":34962},{"buffer":63,"byteLength":360,"byteOffset":0,"target":34963}],"buffers":[{"byteLength":10104,"uri":"data:application/octet-stream;base64,"},{"byteLength":10104,"uri":"data:application/octet-stream;base64,"},{"byteLength":20160,"uri":"data:application/octet-stream;base64,"},{"byteLength":10104,"uri":"data:application/octet-stream;base64,"},{"byteLength":10104,"uri":"data:application/octet-stream;base64,"},{"byteLength":20160,"uri":"data:application/octet-stream;base64,"},{"byteLength":10104,"uri":"data:application/octet-stream;base64,"},{"byteLength":10104,"uri":"data:application/octet-stream;base64,"},{"byteLength":20160,"uri":"data:application/octet-stream;base64,"},{"byteLength":10104,"uri":"data:application/octet-stream;base64,"},{"byteLength":10104,"uri":"data:application/octet-stream;base64,"},{"byteLength":20160,"uri":"data:application/octet-stream;base64,"},{"byteLength":10104,"uri":"data:application/octet-stream;base64,"},{"byteLength":10104,"uri":"data:application/octet-stream;base64,"},{"byteLength":20160,"uri":"data:application/octet-stream;base64,"},{"byteLength":4800,"uri":"data:application/octet-stream;base64,"},{"byteLength":4800,"uri":"data:application/octet-stream;base64,"},{"byteLength":3200,"uri":"data:application/octet-stream;base64,"},{"byteLength":4752,"uri":"data:application/octet-stream;base64,"},{"byteLength":4800,"uri":"data:application/octet-stream;base64,"},{"byteLength":4800,"uri":"data:application/octet-stream;base64,"},{"byteLength":3200,"uri":"data:application/octet-stream;base64,"},{"byteLength":4752,"uri":"data:application/octet-stream;base64,"},{"byteLength":4800,"uri":"data:application/octet-stream;base64,"},{"byteLength":4800,"uri":"data:application/octet-stream;base64,"},{"byteLength":3200,"uri":"data:application/octet-stream;base64,"},{"byteLength":4752,"uri":"data:application/octet-stream;base64,"},{"byteLength":4800,"uri":"data:application/octet-stream;base64,"},{"byteLength":4800,"uri":"data:application/octet-stream;base64,"},{"byteLength":3200,"uri":"data:application/octet-stream;base64,"},{"byteLength":4752,"uri":"data:application/octet-stream;base64,"},{"byteLength":4800,"uri":"data:application/octet-stream;base64,"},{"byteLength":4800,"uri":"data:application/octet-stream;base64,"},{"byteLength":3200,"uri":"data:application/octet-stream;base64,"},{"byteLength":4752,"uri":"data:application/octet-stream;base64,"},{"byteLength":4800,"uri":"data:application/octet-stream;base64,"},{"byteLength":4800,"uri":"data:application/octet-stream;base64,"},{"byteLength":3200,"uri":"data:application/octet-stream;base64,"},{"byteLength":4752,"uri":"data:application/octet-stream;base64,"},{"byteLength":4800,"uri":"data:application/octet-stream;base64,"},{"byteLength":4800,"uri":"data:application/octet-stream;base64,"},{"byteLength":3200,"uri":"data:application/octet-stream;base64,"},{"byteLength":4752,"uri":"data:application/octet-stream;base64,"},{"byteLength":4800,"uri":"data:application/octet-stream;base64,"},{"byteLength":4800,"uri":"data:application/octet-stream;base64,"},{"byteLength":3200,"uri":"data:application/octet-stream;base64,"},{"byteLength":4752,"uri":"data:application/octet-stream;base64,"},{"byteLength":2184,"uri":"data:application/octet-stream;base64,"},{"byteLength":4320,"uri":"data:application/octet-stream;base64,"},{"byteLength":24,"uri":"data:application/octet-stream;base64,"},{"byteLength":16,"uri":"data:application/octet-stream;base64,"},{"byteLength":8,"uri":"data:application/octet-stream;base64,"},{"byteLength":24,"uri":"data:application/octet-stream;base64,"},{"byteLength":16,"uri":"data:application/octet-stream;base64,"},{"byteLength":8,"uri":"data:application/octet-stream;base64,"},{"byteLength":24,"uri":"data:application/octet-stream;base64,"},{"byteLength":16,"uri":"data:application/octet-stream;base64,"},{"byteLength":8,"uri":"data:application/octet-stream;base64,"},{"byteLength":204,"uri":"data:application/octet-stream;base64,"},{"byteLength":360,"uri":"data:application/octet-stream;base64,"},{"byteLength":204,"uri":"data:application/octet-stream;base64,"},{"byteLength":360,"uri":"data:application/octet-stream;base64,"},{"byteLength":204,"uri":"data:application/octet-stream;base64,"},{"byteLength":360,"uri":"data:application/octet-stream;base64,"}],"cameras":[{"perspective":{"aspectRatio":1.3333333333333333,"yfov":0.5235987755982988,"zfar":1000.01,"znear":0.01},"type":"perspective"},{"perspective":{"aspectRatio":1.3311688311688312,"yfov":0.5235987755982988,"zfar":1000.01,"znear":0.01},"type":"perspective"}],"materials":[{"pbrMetallicRoughness":{"baseColorFactor":[0.6784313725490196,0.8470588235294118,0.9019607843137255,1.0],"metallicFactor":0.0,"roughnessFactor":1.0}},{"pbrMetallicRoughness":{"baseColorFactor":[0.6784313725490196,0.8470588235294118,0.9019607843137255,1.0],"metallicFactor":0.0,"roughnessFactor":1.0}},{"pbrMetallicRoughness":{"baseColorFactor":[0.6784313725490196,0.8470588235294118,0.9019607843137255,1.0],"metallicFactor":0.0,"roughnessFactor":1.0}},{"pbrMetallicRoughness":{"baseColorFactor":[0.6784313725490196,0.8470588235294118,0.9019607843137255,1.0],"metallicFactor":0.0,"roughnessFactor":1.0}},{"pbrMetallicRoughness":{"baseColorFactor":[0.6784313725490196,0.8470588235294118,0.9019607843137255,1.0],"metallicFactor":0.0,"roughnessFactor":1.0}},{"pbrMetallicRoughness":{"baseColorFactor":[0.6784313725490196,0.8470588235294118,0.9019607843137255,1.0],"metallicFactor":0.0,"roughnessFactor":1.0}},{"pbrMetallicRoughness":{"baseColorFactor":[0.6784313725490196,0.8470588235294118,0.9019607843137255,1.0],"metallicFactor":0.0,"roughnessFactor":1.0}},{"pbrMetallicRoughness":{"baseColorFactor":[0.6784313725490196,0.8470588235294118,0.9019607843137255,1.0],"metallicFactor":0.0,"roughnessFactor":1.0}},{"pbrMetallicRoughness":{"baseColorFactor":[0.6784313725490196,0.8470588235294118,0.9019607843137255,1.0],"metallicFactor":0.0,"roughnessFactor":1.0}},{"pbrMetallicRoughness":{"baseColorFactor":[0.6784313725490196,0.8470588235294118,0.9019607843137255,1.0],"metallicFactor":0.0,"roughnessFactor":1.0}},{"pbrMetallicRoughness":{"baseColorFactor":[0.6784313725490196,0.8470588235294118,0.9019607843137255,1.0],"metallicFactor":0.0,"roughnessFactor":1.0}},{"pbrMetallicRoughness":{"baseColorFactor":[0.6784313725490196,0.8470588235294118,0.9019607843137255,1.0],"metallicFactor":0.0,"roughnessFactor":1.0}},{"pbrMetallicRoughness":{"baseColorFactor":[0.6784313725490196,0.8470588235294118,0.9019607843137255,1.0],"metallicFactor":0.0,"roughnessFactor":1.0}},{"pbrMetallicRoughness":{"baseColorFactor":[1.0,0.0,0.0,0.9],"metallicFactor":0.0,"roughnessFactor":1.0}},{"pbrMetallicRoughness":{"baseColorFactor":[1.0,0.38823529411764707,0.2784313725490196,1.0],"metallicFactor":0.0,"roughnessFactor":1.0}},{"pbrMetallicRoughness":{"baseColorFactor":[0.1803921568627451,0.5450980392156862,0.3411764705882353,1.0],"metallicFactor":0.0,"roughnessFactor":1.0}},{"pbrMetallicRoughness":{"baseColorFactor":[0.0,0.0,1.0,1.0],"metallicFactor":0.0,"roughnessFactor":1.0}},{"pbrMetallicRoughness":{"baseColorFactor":[1.0,0.38823529411764707,0.2784313725490196,1.0],"metallicFactor":0.0,"roughnessFactor":1.0}},{"pbrMetallicRoughness":{"baseColorFactor":[0.1803921568627451,0.5450980392156862,0.3411764705882353,1.0],"metallicFactor":0.0,"roughnessFactor":1.0}},{"pbrMetallicRoughness":{"baseColorFactor":[0.0,0.0,1.0,1.0],"metallicFactor":0.0,"roughnessFactor":1.0}}],"meshes":[{"name":"mesh0","primitives":[{"attributes":{"NORMAL":1,"POSITION":0},"indices":2,"material":0,"mode":4}]},{"name":"mesh1","primitives":[{"attributes":{"NORMAL":4,"POSITION":3},"indices":5,"material":1,"mode":4}]},{"name":"mesh2","primitives":[{"attributes":{"NORMAL":7,"POSITION":6},"indices":8,"material":2,"mode":4}]},{"name":"mesh3","primitives":[{"attributes":{"NORMAL":10,"POSITION":9},"indices":11,"material":3,"mode":4}]},{"name":"mesh4","primitives":[{"attributes":{"NORMAL":13,"POSITION":12},"indices":14,"material":4,"mode":4}]},{"name":"mesh5","primitives":[{"attributes":{"NORMAL":16,"POSITION":15,"TEXCOORD_0":17},"indices":18,"material":5,"mode":4}]},{"name":"mesh6","primitives":[{"attributes":{"NORMAL":20,"POSITION":19,"TEXCOORD_0":21},"indices":22,"material":6,"mode":4}]},{"name":"mesh7","primitives":[{"attributes":{"NORMAL":24,"POSITION":23,"TEXCOORD_0":25},"indices":26,"material":7,"mode":4}]},{"name":"mesh8","primitives":[{"attributes":{"NORMAL":28,"POSITION":27,"TEXCOORD_0":29},"indices":30,"material":8,"mode":4}]},{"name":"mesh9","primitives":[{"attributes":{"NORMAL":32,"POSITION":31,"TEXCOORD_0":33},"indices":34,"material":9,"mode":4}]},{"name":"mesh10","primitives":[{"attributes":{"NORMAL":36,"POSITION":35,"TEXCOORD_0":37},"indices":38,"material":10,"mode":4}]},{"name":"mesh11","primitives":[{"attributes":{"NORMAL":40,"POSITION":39,"TEXCOORD_0":41},"indices":42,"material":11,"mode":4}]},{"name":"mesh12","primitives":[{"attributes":{"NORMAL":44,"POSITION":43,"TEXCOORD_0":45},"indices":46,"material":12,"mode":4}]},{"name":"mesh13","primitives":[{"attributes":{"POSITION":47},"indices":48,"material":13,"mode":4}]},{"name":"mesh14","primitives":[{"attributes":{"POSITION":49,"TEXCOORD_0":50},"indices":51,"material":14,"mode":1}]},{"name":"mesh15","primitives":[{"attributes":{"POSITION":52,"TEXCOORD_0":53},"indices":54,"material":15,"mode":1}]},{"name":"mesh16","primitives":[{"attributes":{"POSITION":55,"TEXCOORD_0":56},"indices":57,"material":16,"mode":1}]},{"name":"mesh17","primitives":[{"attributes":{"POSITION":58},"indices":59,"material":17,"mode":4}]},{"name":"mesh18","primitives":[{"attributes":{"POSITION":60},"indices":61,"material":18,"mode":4}]},{"name":"mesh19","primitives":[{"attributes":{"POSITION":62},"indices":63,"material":19,"mode":4}]}],"nodes":[{"matrix":[0.0,0.0,1.0000000000000004,0.0,1.0000000000000004,0.0,0.0,0.0,0.0,1.0000000000000004,0.0,0.0,0.0,0.0,0.0,1.0],"mesh":0,"name":"mesh0"},{"matrix":[0.0,0.0,1.0000000000000004,0.0,1.0000000000000004,0.0,0.0,0.0,0.0,1.0000000000000004,0.0,0.0,0.0,0.0,0.0,1.0],"mesh":1,"name":"mesh1"},{"matrix":[0.0,0.0,1.0000000000000004,0.0,1.0000000000000004,0.0,0.0,0.0,0.0,1.0000000000000004,0.0,0.0,0.0,0.0,0.0,1.0],"mesh":2,"name":"mesh2"},{"matrix":[0.0,0.0,1.0000000000000004,0.0,1.0000000000000004,0.0,0.0,0.0,0.0,1.0000000000000004,0.0,0.0,0.0,0.0,0.0,1.0],"mesh":3,"name":"mesh3"},{"matrix":[0.0,0.0,1.0000000000000004,0.0,1.0000000000000004,0.0,0.0,0.0,0.0,1.0000000000000004,0.0,0.0,0.0,0.0,0.0,1.0],"mesh":4,"name":"mesh4"},{"matrix":[0.0,0.0,1.0000000000000004,0.0,1.0000000000000004,0.0,0.0,0.0,0.0,1.0000000000000004,0.0,0.0,0.0,0.0,0.0,1.0],"mesh":5,"name":"mesh5"},{"matrix":[0.0,0.0,1.0000000000000004,0.0,1.0000000000000004,0.0,0.0,0.0,0.0,1.0000000000000004,0.0,0.0,0.0,0.0,0.0,1.0],"mesh":6,"name":"mesh6"},{"matrix":[0.0,0.0,1.0000000000000004,0.0,1.0000000000000004,0.0,0.0,0.0,0.0,1.0000000000000004,0.0,0.0,0.0,0.0,0.0,1.0],"mesh":7,"name":"mesh7"},{"matrix":[0.0,0.0,1.0000000000000004,0.0,1.0000000000000004,0.0,0.0,0.0,0.0,1.0000000000000004,0.0,0.0,0.0,0.0,0.0,1.0],"mesh":8,"name":"mesh8"},{"matrix":[0.0,0.0,1.0000000000000004,0.0,1.0000000000000004,0.0,0.0,0.0,0.0,1.0000000000000004,0.0,0.0,0.0,0.0,0.0,1.0],"mesh":9,"name":"mesh9"},{"matrix":[0.0,0.0,1.0000000000000004,0.0,1.0000000000000004,0.0,0.0,0.0,0.0,1.0000000000000004,0.0,0.0,0.0,0.0,0.0,1.0],"mesh":10,"name":"mesh10"},{"matrix":[0.0,0.0,1.0000000000000004,0.0,1.0000000000000004,0.0,0.0,0.0,0.0,1.0000000000000004,0.0,0.0,0.0,0.0,0.0,1.0],"mesh":11,"name":"mesh11"},{"matrix":[0.0,0.0,1.0000000000000004,0.0,1.0000000000000004,0.0,0.0,0.0,0.0,1.0000000000000004,0.0,0.0,0.0,0.0,0.0,1.0],"mesh":12,"name":"mesh12"},{"matrix":[0.0,0.0,1.0000000000000004,0.0,1.0000000000000004,0.0,0.0,0.0,0.0,1.0000000000000004,0.0,0.0,0.0,0.0,0.0,1.0],"mesh":13,"name":"mesh13"},{"camera":0,"matrix":[1.0,-0.0,0.0,-0.0,-0.0,1.0,-0.0,0.0,0.0,-0.0,1.0,-0.0,-0.0,0.0,1.0,1.0],"name":"Camera Node"},{"children":[0,1,2,3,4,5,6,7,8,9,10,11,12,13,14],"name":"Renderer Node"},{"matrix":[0.0,-0.8000000000000005,0.0,0.0,0.8000000000000005,0.0,0.0,0.0,0.0,0.0,0.8000000000000005,0.0,0.0,0.0,0.0,1.0],"mesh":14,"name":"mesh14"},{"matrix":[0.8,0.0,0.0,0.0,0.0,0.8,0.0,0.0,0.0,0.0,0.8,0.0,0.0,0.0,0.0,1.0],"mesh":15,"name":"mesh15"},{"matrix":[0.8000000000000005,0.0,0.0,0.0,0.0,0.0,0.8000000000000005,0.0,0.0,-0.8000000000000005,0.0,0.0,0.0,0.0,0.0,1.0],"mesh":16,"name":"mesh16"},{"matrix":[0.0,-0.20000000000000012,0.0,0.0,0.20000000000000012,0.0,0.0,0.0,0.0,0.0,0.20000000000000012,0.0,0.9000000000000004,0.0,0.0,1.0],"mesh":17,"name":"mesh17"},{"matrix":[0.2,0.0,0.0,0.0,0.0,0.2,0.0,0.0,0.0,0.0,0.2,0.0,0.0,0.9,0.0,1.0],"mesh":18,"name":"mesh18"},{"matrix":[0.20000000000000012,0.0,0.0,0.0,0.0,0.0,0.20000000000000012,0.0,0.0,-0.20000000000000012,0.0,0.0,0.0,0.0,0.9000000000000004,1.0],"mesh":19,"name":"mesh19"},{"camera":1,"matrix":[1.0,-0.0,0.0,-0.0,-0.0,1.0,-0.0,0.0,0.0,-0.0,1.0,-0.0,-0.0,0.0,1.0,1.0],"name":"Camera Node"},{"children":[16,17,18,19,20,21,22],"name":"Renderer Node"}],"scene":0,"scenes":[{"name":"Layer 0","nodes":[15,23]}]}