{"accessors":[{"bufferView":0,"byteOffset":0,"componentType":5126,"count":842,"max":[0.299560010433197,0.29791900515556335,0.30000001192092896],"min":[-0.299560010433197,-0.29791900515556335,-0.30000001192092896],"type":"VEC3"},{"bufferView":1,"byteOffset":0,"componentType":5126,"count":842,"type":"VEC3"},{"bufferView":2,"byteOffset":0,"componentType":5125,"count":5040,"type":"SCALAR"},{"bufferView":3,"byteOffset":0,"componentType":5126,"count":842,"max":[0.9308990240097046,0.9292579889297485,0.9313390254974365],"min":[0.33177900314331055,0.3334200084209442,0.3313390016555786],"type":"VEC3"},{"bufferView":4,"byteOffset":0,"componentType":5126,"count":842,"type":"VEC3"},{"bufferView":5,"byteOffset":0,"componentType":5125,"count":5040,"type":"SCALAR"},{"bufferView":6,"byteOffset":0,"componentType":5126,"count":842,"max":[-0.33177900314331055,-0.3334200084209442,0.9313390254974365],"min":[-0.9308990240097046,-0.9292579889297485,0.3313390016555786],"type":"VEC3"},{"bufferView":7,"byteOffset":0,"componentType":5126,"count":842,"type":"VEC3"},{"bufferView":8,"byteOffset":0,"componentType":5125,"count":5040,"type":"SCALAR"},{"bufferView":9,"byteOffset":0,"componentType":5126,"count":842,"max":[-0.33177900314331055,0.9292579889297485,-0.3313390016555786],"min":[-0.9308990240097046,0.3334200084209442,-0.9313390254974365],"type":"VEC3"},{"bufferView":10,"byteOffset":0,"componentType":5126,"count":842,"type":"VEC3"},{"bufferView":11,"byteOffset":0,"componentType":5125,"count":5040,"type":"SCALAR"},{"bufferView":12,"byteOffset":0,"componentType":5126,"count":842,"max":[0.9308990240097046,-0.3334200084209442,-0.3313390016555786],"min":[0.33177900314331055,-0.9292579889297485,-0.9313390254974365],"type":"VEC3"},{"bufferView":13,"byteOffset":0,"componentType":5126,"count":842,"type":"VEC3"},{"bufferView":14,"byteOffset":0,"componentType":5125,"count":5040,"type":"SCALAR"},{"bufferView":15,"byteOffset":0,"componentType":5126,"count":400,"max":[0.7129707336425781,0.7129886746406555,0.7129707336425781],"min":[-0.08163175731897354,-0.08164966851472855,-0.08163175731897354],"type":"VEC3"},{"bufferView":16,"byteOffset":0,"componentType":5126,"count":400,"type":"VEC3"},{"bufferView":17,"byteOffset":0,"componentType":5126,"count":400,"normalized":false,"type":"VEC2"},{"bufferView":18,"byteOffset":0,"componentType":5125,"count":1188,"type":"SCALAR"},{"bufferView":19,"byteOffset":0,"componentType":5126,"count":400,"max":[0.08163175731897354,0.08164966851472855,0.7129707336425781],"min":[-0.7129707336425781,-0.7129886746406555,-0.08163175731897354],"type":"VEC3"},{"bufferView":20,"byteOffset":0,"componentType":5126,"count":400,"type":"VEC3"},{"bufferView":21,"byteOffset":0,"componentType":5126,"count":400,"normalized":false,"type":"VEC2"},{"bufferView":22,"byteOffset":0,"componentType":5125,"count":1188,"type":"SCALAR"},{"bufferView":23,"byteOffset":0,"componentType":5126,"count":400,"max":[0.08163175731897354,0.7129886746406555,0.08163175731897354],"min":[-0.7129707336425781,-0.08164966851472855,-0.7129707336425781],"type":"VEC3"},{"bufferView":24,"byteOffset":0,"componentType":5126,"count":400,"type":"VEC3"},{"bufferView":25,"byteOffset":0,"componentType":5126,"count":400,"normalized":false,"type":"VEC2"},{"bufferView":26,"byteOffset":0,"componentType":5125,"count":1188,"type":"SCALAR"},{"bufferView":27,"byteOffset":0,"componentType":5126,"count":400,"max":[0.7129707336425781,0.08164966851472855,0.08163175731897354],"min":[-0.08163175731897354,-0.7129886746406555,-0.7129707336425781],"type":"VEC3"},{"bufferView":28,"byteOffset":0,"componentType":5126,"count":400,"type":"VEC3"},{"bufferView":29,"byteOffset":0,"componentType":5126,"count":400,"normalized":false,"type":"VEC2"},{"bufferView":30,"byteOffset":0,"componentType":5125,"count":1188,"type":"SCALAR"},{"bufferView":31,"byteOffset":0,"componentType":5126,"count":182,"max":[0.901173511692512,0.9011735116925119,0.8715997118947545],"min":[-0.9011735116925119,-0.9011735116925119,-0.8715997118947542],"type":"VEC3"},{"bufferView":32,"byteOffset":0,"componentType":5125,"count":1080,"type":"SCALAR"},{"bufferView":33,"byteOffset":0,"componentType":5126,"count":2,"max":[0.0,1.0,0.0],"min":[0.0,0.0,0.0],"type":"VEC3"},{"bufferView":34,"byteOffset":0,"componentType":5126,"count":2,"normalized":false,"type":"VEC2"},{"bufferView":35,"byteOffset":0,"componentType":5125,"count":2,"type":"SCALAR"},{"bufferView":36,"byteOffset":0,"componentType":5126,"count":2,"max":[0.0,1.0,0.0],"min":[0.0,0.0,0.0],"type":"VEC3"},{"bufferView":37,"byteOffset":0,"componentType":5126,"count":2,"normalized":false,"type":"VEC2"},{"bufferView":38,"byteOffset":0,"componentType":5125,"count":2,"type":"SCALAR"},{"bufferView":39,"byteOffset":0,"componentType":5126,"count":2,"max":[0.0,1.0,0.0],"min":[0.0,0.0,0.0],"type":"VEC3"},{"bufferView":40,"byteOffset":0,"componentType":5126,"count":2,"normalized":false,"type":"VEC2"},{"bufferView":41,"byteOffset":0,"componentType":5125,"count":2,"type":"SCALAR"},{"bufferView":42,"byteOffset":0,"componentType":5126,"count":17,"max":[0.4000000059604645,0.5,0.4000000059604645],"min":[-0.4000000059604645,-0.5,-0.4000000059604645],"type":"VEC3"},{"bufferView":43,"byteOffset":0,"componentType":5125,"count":90,"type":"SCALAR"},{"bufferView":44,"byteOffset":0,"componentType":5126,"count":17,"max":[0.4000000059604645,0.5,0.4000000059604645],"min":[-0.4000000059604645,-0.5,-0.4000000059604645],"type":"VEC3"},{"bufferView":45,"byteOffset":0,"componentType":5125,"count":90,"type":"SCALAR"},{"bufferView":46,"byteOffset":0,"componentType":5126,"count":17,"max":[0.4000000059604645,0.5,0.4000000059604645],"min":[-0.4000000059604645,-0.5,-0.4000000059604645],"type":"VEC3"},{"bufferView":47,"byteOffset":0,"componentType":5125,"count":90,"type":"SCALAR"}],"asset":{"generator":"VTK","version":"2.0"},"bufferViews":[{"buffer":0,"byteLength":10104,"byteOffset":0,"target":34962},{"buffer":1,"byteLength":10104,"byteOffset":0,"target":34962},{"buffer":2,"byteLength":20160,"byteOffset":0,"target":34963},{"buffer":3,"byteLength":10104,"byteOffset":0,"target":34962},{"buffer":4,"byteLength":10104,"byteOffset":0,"target":34962},{"buffer":5,"byteLength":20160,"byteOffset":0,"target":34963},{"buffer":6,"byteLength":10104,"byteOffset":0,"target":34962},{"buffer":7,"byteLength":10104,"byteOffset":0,"target":34962},{"buffer":8,"byteLength":20160,"byteOffset":0,"target":34963},{"buffer":9,"byteLength":10104,"byteOffset":0,"target":34962},{"buffer":10,"byteLength":10104,"byteOffset":0,"target":34962},{"buffer":11,"byteLength":20160,"byteOffset":0,"target":34963},{"buffer":12,"byteLength":10104,"byteOffset":0,"target":34962},{"buffer":13,"byteLength":10104,"byteOffset":0,"target":34962},{"buffer":14,"byteLength":20160,"byteOffset":0,"target":34963},{"buffer":15,"byteLength":4800,"byteOffset":0,"target":34962},{"buffer":16,"byteLength":4800,"byteOffset":0,"target":34962},{"buffer":17,"byteLength":3200,"byteOffset":0,"target":34962},{"buffer":18,"byteLength":4752,"byteOffset":0,"target":34963},{"buffer":19,"byteLength":4800,"byteOffset":0,"target":34962},{"buffer":20,"byteLength":4800,"byteOffset":0,"target":34962},{"buffer":21,"byteLength":3200,"byteOffset":0,"target":34962},{"buffer":22,"byteLength":4752,"byteOffset":0,"target":34963},{"buffer":23,"byteLength":4800,"byteOffset":0,"target":34962},{"buffer":24,"byteLength":4800,"byteOffset":0,"target":34962},{"buffer":25,"byteLength":3200,"byteOffset":0,"target":34962},{"buffer":26,"byteLength":4752,"byteOffset":0,"target":34963},{"buffer":27,"byteLength":4800,"byteOffset":0,"target":34962},{"buffer":28,"byteLength":4800,"byteOffset":0,"target":34962},{"buffer":29,"byteLength":3200,"byteOffset":0,"target":34962},{"buffer":30,"byteLength":4752,"byteOffset":0,"target":34963},{"buffer":31,"byteLength":2184,"byteOffset":0,"target":34962},{"buffer":32,"byteLength":4320,"byteOffset":0,"target":34963},{"buffer":33,"byteLength":24,"byteOffset":0,"target":34962},{"buffer":34,"byteLength":16,"byteOffset":0,"target":34962},{"buffer":35,"byteLength":8,"byteOffset":0,"target":34963},{"buffer":36,"byteLength":24,"byteOffset":0,"target":34962},{"buffer":37,"byteLength":16,"byteOffset":0,"target":34962},{"buffer":38,"byteLength":8,"byteOffset":0,"target":34963},{"buffer":39,"byteLength":24,"byteOffset":0,"target":34962},{"buffer":40,"byteLength":16,"byteOffset":0,"target":34962},{"buffer":41,"byteLength":8,"byteOffset":0,"target":34963},{"buffer":42,"byteLength":204,"byteOffset":0,"target":34962},{"buffer":43,"byteLength":360,"byteOffset":0,"target":34963},{"buffer":44,"byteLength":204,"byteOffset":0,"target":34962},{"buffer":45,"byteLength":360,"byteOffset":0,"target":34963},{"buffer":46,"byteLength":204,"byteOffset":0,"target":34962},{"buffer":47,"byteLength":360,"byteOffset":0,"target":34963}],"buffers":[{"byteLength":10104,"uri":"data:application/octet-stream;base64,"},{"byteLength":10104,"uri":"data:application/octet-stream;base64,"},{"byteLength":20160,"uri":"data:application/octet-stream;base64,"},{"byteLength":10104,"uri":"data:application/octet-stream;base64,"},{"byteLength":10104,"uri":"data:application/octet-stream;base64,"},{"byteLength":20160,"uri":"data:application/octet-stream;base64,"},{"byteLength":10104,"uri":"data:application/octet-stream;base64,"},{"byteLength":10104,"uri":"data:application/octet-stream;base64,"},{"byteLength":20160,"uri":"data:application/octet-stream;base64,"},{"byteLength":10104,"uri":"data:application/octet-stream;base64,"},{"byteLength":10104,"uri":"data:application/octet-stream;base64,"},{"byteLength":20160,"uri":"data:application/octet-stream;base64,"},{"byteLength":10104,"uri":"data:application/octet-stream;base64,"},{"byteLength":10104,"uri":"data:application/octet-stream;base64,"},{"byteLength":20160,"uri":"data:application/octet-stream;base64,"},{"byteLength":4800,"uri":"data:application/octet-stream;base64,"},{"byteLength":4800,"uri":"data:application/octet-stream;base64,"},{"byteLength":3200,"uri":"data:application/octet-stream;base64,"},{"byteLength":4752,"uri":"data:application/octet-stream;base64,"},{"byteLength":4800,"uri":"data:application/octet-stream;base64,"},{"byteLength":4800,"uri":"data:application/octet-stream;base64,"},{"byteLength":3200,"uri":"data:application/octet-stream;base64,"},{"byteLength":4752,"uri":"data:application/octet-stream;base64,"},{"byteLength":4800,"uri":"data:application/octet-stream;base64,"},{"byteLength":4800,"uri":"data:application/octet-stream;base64,"},{"byteLength":3200,"uri":"data:application/octet-stream;base64,"},{"byteLength":4752,"uri":"data:application/octet-stream;base64,"},{"byteLength":4800,"uri":"data:application/octet-stream;base64,"},{"byteLength":4800,"uri":"data:application/octet-stream;base64,"},{"byteLength":3200,"uri":"data:application/octet-stream;base64,"},{"byteLength":4752,"uri":"data:application/octet-stream;base64,"},{"byteLength":2184,"uri":"data:application/octet-stream;base64,"},{"byteLength":4320,"uri":"data:application/octet-stream;base64,"},{"byteLength":24,"uri":"data:application/octet-stream;base64,"},{"byteLength":16,"uri":"data:application/octet-stream;base64,"},{"byteLength":8,"uri":"data:application/octet-stream;base64,"},{"byteLength":24,"uri":"data:application/octet-stream;base64,"},{"byteLength":16,"uri":"data:application/octet-stream;base64,"},{"byteLength":8,"uri":"data:application/octet-stream;base64,"},{"byteLength":24,"uri":"data:application/octet-stream;base64,"},{"byteLength":16,"uri":"data:application/octet-stream;base64,"},{"byteLength":8,"uri":"data:application/octet-stream;base64,"},{"byteLength":204,"uri":"data:application/octet-stream;base64,"},{"byteLength":360,"uri":"data:application/octet-stream;base64,"},{"byteLength":204,"uri":"data:application/octet-stream;base64,"},{"byteLength":360,"uri":"data:application/octet-stream;base64,"},{"byteLength":204,"uri":"data:application/octet-stream;base64,"},{"byteLength":360,"uri":"data:application/octet-stream;base64,"}],"cameras":[{"perspective":{"aspectRatio":1.3333333333333333,"yfov":0.5235987755982988,"zfar":1000.01,"znear":0.01},"type":"perspective"},{"perspective":{"aspectRatio":1.3311688311688312,"yfov":0.5235987755982988,"zfar":1000.01,"znear":0.01},"type":"perspective"}],"materials":[{"pbrMetallicRoughness":{"baseColorFactor":[0.6784313725490196,0.8470588235294118,0.9019607843137255,1.0],"metallicFactor":0.0,"roughnessFactor":1.0}},{"pbrMetallicRoughness":{"baseColorFactor":[0.6784313725490196,0.8470588235294118,0.9019607843137255,1.0],"metallicFactor":0.0,"roughnessFactor":1.0}},{"pbrMetallicRoughness":{"baseColorFactor":[0.6784313725490196,0.8470588235294118,0.9019607843137255,1.0],"metallicFactor":0.0,"roughnessFactor":1.0}},{"pbrMetallicRoughness":{"baseColorFactor":[0.6784313725490196,0.8470588235294118,0.9019607843137255,1.0],"metallicFactor":0.0,"roughnessFactor":1.0}},{"pbrMetallicRoughness":{"baseColorFactor":[0.6784313725490196,0.8470588235294118,0.9019607843137255,1.0],"metallicFactor":0.0,"roughnessFactor":1.0}},{"pbrMetallicRoughness":{"baseColorFactor":[0.6784313725490196,0.8470588235294118,0.9019607843137255,1.0],"metallicFactor":0.0,"roughnessFactor":1.0}},{"pbrMetallicRoughness":{"baseColorFactor":[0.6784313725490196,0.8470588235294118,0.9019607843137255,1.0],"metallicFactor":0.0,"roughnessFactor":1.0}},{"pbrMetallicRoughness":{"baseColorFactor":[0.6784313725490196,0.8470588235294118,0.9019607843137255,1.0],"metallicFactor":0.0,"roughnessFactor":1.0}},{"pbrMetallicRoughness":{"baseColorFactor":[0.6784313725490196,0.8470588235294118,0.9019607843137255,1.0],"metallicFactor":0.0,"roughnessFactor":1.0}},{"pbrMetallicRoughness":{"baseColorFactor":[1.0,0.0,0.0,0.9],"metallicFactor":0.0,"roughnessFactor":1.0}},{"pbrMetallicRoughness":{"baseColorFactor":[1.0,0.38823529411764707,0.2784313725490196,1.0],"metallicFactor":0.0,"roughnessFactor":1.0}},{"pbrMetallicRoughness":{"baseColorFactor":[0.1803921568627451,0.5450980392156862,0.3411764705882353,1.0],"metallicFactor":0.0,"roughnessFactor":1.0}},{"pbrMetallicRoughness":{"baseColorFactor":[0.0,0.0,1.0,1.0],"metallicFactor":0.0,"roughnessFactor":1.0}},{"pbrMetallicRoughness":{"baseColorFactor":[1.0,0.38823529411764707,0.2784313725490196,1.0],"metallicFactor":0.0,"roughnessFactor":1.0}},{"pbrMetallicRoughness":{"baseColorFactor":[0.1803921568627451,0.5450980392156862,0.3411764705882353,1.0],"metallicFactor":0.0,"roughnessFactor":1.0}},{"pbrMetallicRoughness":{"baseColorFactor":[0.0,0.0,1.0,1.0],"metallicFactor":0.0,"roughnessFactor":1.0}}],"meshes":[{"name":"mesh0","primitives":[{"attributes":{"NORMAL":1,"POSITION":0},"indices":2,"material":0,"mode":4}]},{"name":"mesh1","primitives":[{"attributes":{"NORMAL":4,"POSITION":3},"indices":5,"material":1,"mode":4}]},{"name":"mesh2","primitives":[{"attributes":{"NORMAL":7,"POSITION":6},"indices":8,"material":2,"mode":4}]},{"name":"mesh3","primitives":[{"attributes":{"NORMAL":10,"POSITION":9},"indices":11,"material":3,"mode":4}]},{"name":"mesh4","primitives":[{"attributes":{"NORMAL":13,"POSITION":12},"indices":14,"material":4,"mode":4}]},{"name":"mesh5","primitives":[{"attributes":{"NORMAL":16,"POSITION":15,"TEXCOORD_0":17},"indices":18,"material":5,"mode":4}]},{"name":"mesh6","primitives":[{"attributes":{"NORMAL":20,"POSITION":19,"TEXCOORD_0":21},"indices":22,"material":6,"mode":4}]},{"name":"mesh7","primitives":[{"attributes":{"NORMAL":24,"POSITION":23,"TEXCOORD_0":25},"indices":26,"material":7,"mode":4}]},{"name":"mesh8","primitives":[{"attributes":{"NORMAL":28,"POSITION":27,"TEXCOORD_0":29},"indices":30,"material":8,"mode":4}]},{"name":"mesh9","primitives":[{"attributes":{"POSITION":31},"indices":32,"material":9,"mode":4}]},{"name":"mesh10","primitives":[{"attributes":{"POSITION":33,"TEXCOORD_0":34},"indices":35,"material":10,"mode":1}]},{"name":"mesh11","primitives":[{"attributes":{"POSITION":36,"TEXCOORD_0":37},"indices":38,"material":11,"mode":1}]},{"name":"mesh12","primitives":[{"attributes":{"POSITION":39,"TEXCOORD_0":40},"indices":41,"material":12,"mode":1}]},{"name":"mesh13","primitives":[{"attributes":{"POSITION":42},"indices":43,"material":13,"mode":4}]},{"name":"mesh14","primitives":[{"attributes":{"POSITION":44},"indices":45,"material":14,"mode":4}]},{"name":"mesh15","primitives":[{"attributes":{"POSITION":46},"indices":47,"material":15,"mode":4}]}],"nodes":[{"matrix":[0.0,0.0,1.0000000000000004,0.0,1.0000000000000004,0.0,0.0,0.0,0.0,1.0000000000000004,0.0,0.0,0.0,0.0,0.0,1.0],"mesh":0,"name":"mesh0"},{"matrix":[0.0,0.0,1.0000000000000004,0.0,1.0000000000000004,0.0,0.0,0.0,0.0,1.0000000000000004,0.0,0.0,0.0,0.0,0.0,1.0],"mesh":1,"name":"mesh1"},{"matrix":[0.0,0.0,1.0000000000000004,0.0,1.0000000000000004,0.0,0.0,0.0,0.0,1.0000000000000004,0.0,0.0,0.0,0.0,0.0,1.0],"mesh":2,"name":"mesh2"},{"matrix":[0.0,0.0,1.0000000000000004,0.0,1.0000000000000004,0.0,0.0,0.0,0.0,1.0000000000000004,0.0,0.0,0.0,0.0,0.0,1.0],"mesh":3,"name":"mesh3"},{"matrix":[0.0,0.0,1.0000000000000004,0.0,1.0000000000000004,0.0,0.0,0.0,0.0,1.0000000000000004,0.0,0.0,0.0,0.0,0.0,1.0],"mesh":4,"name":"mesh4"},{"matrix":[0.0,0.0,1.0000000000000004,0.0,1.0000000000000004,0.0,0.0,0.0,0.0,1.0000000000000004,0.0,0.0,0.0,0.0,0.0,1.0],"mesh":5,"name":"mesh5"},{"matrix":[0.0,0.0,1.0000000000000004,0.0,1.0000000000000004,0.0,0.0,0.0,0.0,1.0000000000000004,0.0,0.0,0.0,0.0,0.0,1.0],"mesh":6,"name":"mesh6"},{"matrix":[0.0,0.0,1.0000000000000004,0.0,1.0000000000000004,0.0,0.0,0.0,0.0,1.0000000000000004,0.0,0.0,0.0,0.0,0.0,1.0],"mesh":7,"name":"mesh7"},{"matrix":[0.0,0.0,1.0000000000000004,0.0,1.0000000000000004,0.0,0.0,0.0,0.0,1.0000000000000004,0.0,0.0,0.0,0.0,0.0,1.0],"mesh":8,"name":"mesh8"},{"matrix":[0.0,0.0,1.0000000000000004,0.0,1.0000000000000004,0.0,0.0,0.0,0.0,1.0000000000000004,0.0,0.0,0.0,0.0,0.0,1.0],"mesh":9,"name":"mesh9"},{"camera":0,"matrix":[1.0,-0.0,0.0,-0.0,-0.0,1.0,-0.0,0.0,0.0,-0.0,1.0,-0.0,-0.0,0.0,1.0,1.0],"name":"Camera Node"},{"children":[0,1,2,3,4,5,6,7,8,9,10],"name":"Renderer Node"},{"matrix":[0.0,-0.8000000000000005,0.0,0.0,0.8000000000000005,0.0,0.0,0.0,0.0,0.0,0.8000000000000005,0.0,0.0,0.0,0.0,1.0],"mesh":10,"name":"mesh10"},{"matrix":[0.8,0.0,0.0,0.0,0.0,0.8,0.0,0.0,0.0,0.0,0.8,0.0,0.0,0.0,0.0,1.0],"mesh":11,"name":"mesh11"},{"matrix":[0.8000000000000005,0.0,0.0,0.0,0.0,0.0,0.8000000000000005,0.0,0.0,-0.8000000000000005,0.0,0.0,0.0,0.0,0.0,1.0],"mesh":12,"name":"mesh12"},{"matrix":[0.0,-0.20000000000000012,0.0,0.0,0.20000000000000012,0.0,0.0,0.0,0.0,0.0,0.20000000000000012,0.0,0.9000000000000004,0.0,0.0,1.0],"mesh":13,"name":"mesh13"},{"matrix":[0.2,0.0,0.0,0.0,0.0,0.2,0.0,0.0,0.0,0.0,0.2,0.0,0.0,0.9,0.0,1.0],"mesh":14,"name":"mesh14"},{"matrix":[0.20000000000000012,0.0,0.0,0.0,0.0,0.0,0.20000000000000012,0.0,0.0,-0.20000000000000012,0.0,0.0,0.0,0.0,0.9000000000000004,1.0],"mesh":15,"name":"mesh15"},{"camera":1,"matrix":[1.0,-0.0,0.0,-0.0,-0.0,1.0,-0.0,0.0,0.0,-0.0,1.0,-0.0,-0.0,0.0,1.0,1.0],"name":"Camera Node"},{"children":[12,13,14,15,16,17,18],"name":"Renderer Node"}],"scene":0,"scenes":[{"name":"Layer 0","nodes":[11,19]}]}